# xmcd
#
# Track frame offsets: 
#        150
#        24990
#        50144
#        66855
#        88943
#        113028
#        124665
#        146775
#        199540
#        232267
#        262887
#
# Disc length: 3967 seconds
#
# Revision: 0
# Processed by: cddbd v1.4PL0 Copyright (c) Steve Scherf et al.
# Submitted via: ExactAudioCopy v0.90b4
#
DISCID=9f0f7d0b
DTITLE=Albert King - L.A. Forum  08-20-72
DYEAR=1972
DGENRE=Blues
TTITLE0=Got to Be Changes Made
TTITLE1=I'll Play the Blues For You
TTITLE2=Killing Floor
TTITLE3=Angel of Mercy
TTITLE4=Matchbox Blues
TTITLE5=Watermelon Man
TTITLE6=Breakin' Up Somebody's Home
TTITLE7=Call It Stormy Monday 
TTITLE8=As The Years Go Passing By
TTITLE9=I'll Play The Blues For You
TTITLE10=The Sky Is Crying
EXTD=
EXTT0=
EXTT1=
EXTT2=
EXTT3=
EXTT4=
EXTT5=
EXTT6=
EXTT7=
EXTT8=
EXTT9=
EXTT10=
PLAYORDER=
